<svg xmlns="http://www.w3.org/2000/svg" xmlns:xlink="http://www.w3.org/1999/xlink" width="33" height="26" viewBox="0 0 33 26"><defs><path id="1h74a" d="M1514 64a3 3 0 0 1 3-3h27a3 3 0 0 1 0 6h-27a3 3 0 0 1-3-3z"/><path id="1h74b" d="M1514 74a3 3 0 0 1 3-3h27a3 3 0 0 1 0 6h-27a3 3 0 0 1-3-3z"/><path id="1h74c" d="M1514 84a3 3 0 0 1 3-3h27a3 3 0 0 1 0 6h-27a3 3 0 0 1-3-3z"/></defs><g><g transform="translate(-1514 -61)"><use fill="#7ec920" xlink:href="#1h74a"/></g><g transform="translate(-1514 -61)"><use fill="#7ec920" xlink:href="#1h74b"/></g><g transform="translate(-1514 -61)"><use fill="#7ec920" xlink:href="#1h74c"/></g></g></svg>