<svg id="Layer_1" data-name="Layer 1" xmlns="http://www.w3.org/2000/svg" viewBox="0 0 40.82 41.27"><defs><style>.cls-1{fill:#69b620;}</style></defs><title>LogoHands</title><path class="cls-1" d="M127.67,138.18a31.45,31.45,0,0,0-10.4,1.62.77.77,0,0,0-.36,1c-1.17-.44-2.8-1.09-4.44-1.82-2.79-1.25-4.59-.86-6.58.71h-6.2c0-.25.06-.48.08-.71a.77.77,0,0,0-.24-.63c-1.33-1.26-8.76-1.76-8.76-1.76a20,20,0,0,0-2.23,7.77,22.24,22.24,0,0,0,.87,7.71H95.9a.77.77,0,0,0,.74-.53l.18-.56.57.6c.69.72,1.4,1.47,1.88,1.87,2.88,2.41,6.35,5,7,5.47a5.94,5.94,0,0,0,2.75.9,2.66,2.66,0,0,0,1.76-.52,2.41,2.41,0,0,0,1.76,0,3,3,0,0,0,1.61-1.49,3,3,0,0,0,1.94-.28,2.63,2.63,0,0,0,1.29-1.35,2.53,2.53,0,0,0,1.78-.64,2.44,2.44,0,0,0,.83-2.34l1.23-.83c.09.28.16.52.21.7a.77.77,0,0,0,.75.57h5.58c.43,0,1.73-5.68,1.5-8.63S128.1,138.18,127.67,138.18ZM95.33,150.56H90.66a16.71,16.71,0,0,1-.51-5.87,16.89,16.89,0,0,1,1.69-6.45,25.35,25.35,0,0,1,6.33,1.09A81.22,81.22,0,0,1,95.33,150.56Zm22.86,3.82a.86.86,0,0,1-.94.19c-.6-.48-3-3-4.54-4.55a.77.77,0,1,0-1.12,1.07c.36.37,3.25,3.39,4.41,4.44a1.07,1.07,0,0,1-.57.62,1.19,1.19,0,0,1-1.21,0l0,0,0,0c-.93-.74-3.26-3.22-3.78-3.79a.77.77,0,1,0-1.14,1s2.3,2.48,3.58,3.63a1.49,1.49,0,0,1-.82.83.82.82,0,0,1-.89-.14h0c-1.1-.93-3.36-3.33-3.8-3.81a.77.77,0,1,0-1.13,1.06c.52.56,2.08,2.22,3.26,3.32l-.37,0a4.46,4.46,0,0,1-1.9-.65c-.54-.36-4-2.9-6.89-5.36-.41-.35-1.13-1.09-1.76-1.75-.47-.49-.89-.93-1.17-1.19.65-2.13,1.58-5.41,2.1-8.07h4.75c-1.06,1.06-2.48,3.19-2.11,4.76a1.91,1.91,0,0,0,1.33,1.39,3.87,3.87,0,0,0,4.55-1.56,3.91,3.91,0,0,0,1.16-.37l.54-.23c.89.83,2.08,1.8,3.34,2.82,2.28,1.84,4.86,3.93,5.44,5.13A.91.91,0,0,1,118.19,154.38Zm1.16-2.57a35.38,35.38,0,0,0-5.39-4.93c-1.41-1.14-2.73-2.21-3.58-3.06a.77.77,0,0,0-.81-.18c-.52.19-.84.33-1.1.45a2.56,2.56,0,0,1-1,.28.77.77,0,0,0-.57.34c-1.09,1.64-2.23,1.5-3,1.24-.24-.08-.28-.18-.31-.28-.16-.68.65-2.26,1.71-3.32,2.52-2.52,3.81-3.15,6.55-1.92s5.2,2.11,6,2.4c.91,2.21,2.14,5.64,2.93,8Zm7.31.3h-3.86c-.73-2.39-2.9-8.62-4.11-11.2a29.88,29.88,0,0,1,7.91-1.18,15.86,15.86,0,0,1,1.08,6.28A15.12,15.12,0,0,1,126.65,152.11Z" transform="translate(-88.5 -126.41)"/><path class="cls-1" d="M96.75,131.46h1.81a.25.25,0,0,0,.14,0,18.95,18.95,0,0,1,21.72,0,.25.25,0,0,0,.14,0h1.81a.25.25,0,0,0,.16-.44,20.56,20.56,0,0,0-25.95,0,.25.25,0,0,0,.16.44Z" transform="translate(-88.5 -126.41)"/><path class="cls-1" d="M122.38,162.63h-1.81a.25.25,0,0,0-.14,0,18.95,18.95,0,0,1-21.72,0,.25.25,0,0,0-.14,0H96.75a.25.25,0,0,0-.16.44,20.56,20.56,0,0,0,25.95,0,.25.25,0,0,0-.16-.44Z" transform="translate(-88.5 -126.41)"/></svg>