<svg id="Layer_1" data-name="Layer 1" xmlns="http://www.w3.org/2000/svg" viewBox="0 0 87 22.79"><defs><style>.cls-1{fill:#1a1a1a;}</style></defs><title>LogoText</title><path class="cls-1" d="M141.77,135.65h3a2.48,2.48,0,0,1,2.57,2.48,2.41,2.41,0,0,1-2.61,2.4h-2.17v3.27h-.79Zm3,4.16a1.68,1.68,0,0,0,1.83-1.69,1.73,1.73,0,0,0-1.79-1.75h-2.21v3.44Z" transform="translate(-141.5 -135.65)"/><path class="cls-1" d="M153,140.94a4,4,0,0,1,0,.52h-4.25a1.94,1.94,0,0,0,2,1.8,2.06,2.06,0,0,0,1.62-.65l.42.53a2.8,2.8,0,0,1-2,.8,2.78,2.78,0,0,1-.06-5.56A2.29,2.29,0,0,1,153,140.94Zm-4.26-.13h3.54a1.59,1.59,0,0,0-1.64-1.75A1.9,1.9,0,0,0,148.76,140.8Z" transform="translate(-141.5 -135.65)"/><path class="cls-1" d="M154.44,138.5h3.43v.67h-2.7v4.63h-.73Z" transform="translate(-141.5 -135.65)"/><path class="cls-1" d="M163.54,138.5v5.3h-.73v-3.24c0-.2,0-.41,0-.61-.16.2-.32.41-.5.6l-3,3.25h-.26v-5.3h.73v3.14c0,.24,0,.48,0,.71.19-.24.4-.47.6-.7l2.88-3.15Z" transform="translate(-141.5 -135.65)"/><path class="cls-1" d="M165,141.15a2.75,2.75,0,1,1,2.73,2.78A2.65,2.65,0,0,1,165,141.15Zm4.75,0a2,2,0,1,0-2,2.1A2,2,0,0,0,169.78,141.15Z" transform="translate(-141.5 -135.65)"/><path class="cls-1" d="M176.43,138.5v5.3h-.73v-2.34h-3v2.34H172v-5.3h.73v2.29h3V138.5Z" transform="translate(-141.5 -135.65)"/><path class="cls-1" d="M182.25,140.27v3.53h-.54l-.13-1a2.23,2.23,0,0,1-2,1.05c-1,0-1.69-.56-1.69-1.47,0-1.19,1.09-1.87,2.65-1.87a7.45,7.45,0,0,1,1,0v-.36c0-.74-.53-1.12-1.34-1.12a4.15,4.15,0,0,0-1.75.44l-.25-.62a4.87,4.87,0,0,1,2.07-.5A1.77,1.77,0,0,1,182.25,140.27Zm-.74.94a6.32,6.32,0,0,0-.86,0c-1.25,0-2,.43-2,1.21,0,.53.38.84,1,.84A1.82,1.82,0,0,0,181.51,141.21Z" transform="translate(-141.5 -135.65)"/><path class="cls-1" d="M183.21,143.21c1-.11,1.31-.74,1.4-1.92l.23-2.79h3.43v5.3h-.73v-4.62h-2l-.17,2.05c-.13,1.75-.66,2.46-2,2.64Z" transform="translate(-141.5 -135.65)"/><path class="cls-1" d="M194.31,142.1c0,1.08-.76,1.7-2,1.7h-2.21v-5.3h.73v1.89h1.48C193.56,140.4,194.31,141,194.31,142.1Zm-.73,0c0-.67-.43-1-1.22-1h-1.48v2.06h1.48C193.15,143.13,193.58,142.77,193.58,142.1Z" transform="translate(-141.5 -135.65)"/><path class="cls-1" d="M200.06,138.5v5.3h-.73v-2.34h-3v2.34h-.73v-5.3h.73v2.29h3V138.5Z" transform="translate(-141.5 -135.65)"/><path class="cls-1" d="M206.1,142.1c0,1.08-.76,1.7-2,1.7h-2.21v-5.3h.73v1.89h1.48C205.34,140.4,206.1,141,206.1,142.1Zm-.73,0c0-.67-.43-1-1.22-1h-1.48v2.06h1.48C204.93,143.13,205.36,142.77,205.36,142.1Zm2.5-3.6v5.3h-.73v-5.3Z" transform="translate(-141.5 -135.65)"/><path class="cls-1" d="M214.18,138.5v5.3h-.73v-3.24c0-.2,0-.41,0-.61-.16.2-.32.41-.5.6l-3,3.25h-.26v-5.3h.73v3.14c0,.24,0,.48,0,.71.19-.24.4-.47.6-.7l2.88-3.15Zm-3.71-2,.44-.34a1.29,1.29,0,0,0,1.08.61,1.32,1.32,0,0,0,1.08-.61l.43.34a1.63,1.63,0,0,1-1.51.86A1.66,1.66,0,0,1,210.48,136.52Z" transform="translate(-141.5 -135.65)"/><path class="cls-1" d="M145.65,155.74v.06h-.91l-2.51-2.46v2.46h-.73v-5.3h.73v2.33l2.29-2.33h.89v0l-2.52,2.53Z" transform="translate(-141.5 -135.65)"/><path class="cls-1" d="M152.11,153.13a2.62,2.62,0,0,1-2.63,2.79,2.53,2.53,0,0,1-2.06-1c0,.41,0,.9,0,1.43v2.09h-.73V150.5h.55l.16.89a2.51,2.51,0,0,1,2.07-1A2.59,2.59,0,0,1,152.11,153.13Zm-.73,0a2,2,0,1,0-4,0,2,2,0,0,0,2,2.11A1.93,1.93,0,0,0,151.38,153.16Z" transform="translate(-141.5 -135.65)"/><path class="cls-1" d="M158.25,152.94a3.79,3.79,0,0,1,0,.52H154a1.94,1.94,0,0,0,2,1.8,2.06,2.06,0,0,0,1.62-.65l.42.53a2.8,2.8,0,0,1-2,.8,2.78,2.78,0,0,1-.06-5.56A2.29,2.29,0,0,1,158.25,152.94ZM154,152.8h3.54a1.59,1.59,0,0,0-1.64-1.75A1.9,1.9,0,0,0,154,152.8Z" transform="translate(-141.5 -135.65)"/><path class="cls-1" d="M164.54,155.13v2.08h-.71v-1.4h-4.31v1.4h-.71v-2.08h.7a3.72,3.72,0,0,0,.5-1.79l.28-2.84h3.49v4.63Zm-3.81-1.67a4.31,4.31,0,0,1-.41,1.67h2.73v-3.95H161Z" transform="translate(-141.5 -135.65)"/><path class="cls-1" d="M170.18,150.5v5.3h-.73v-3.24c0-.2,0-.41,0-.61-.16.2-.32.41-.5.6l-3,3.25h-.26v-5.3h.73v3.14c0,.24,0,.48,0,.71.19-.24.4-.47.6-.7l2.88-3.15Z" transform="translate(-141.5 -135.65)"/><path class="cls-1" d="M173.05,151.17h-1.69v-.67h4.13v.67h-1.7v4.63h-.73Z" transform="translate(-141.5 -135.65)"/><path class="cls-1" d="M181.08,150.5v5.3h-.73v-2.34h-3v2.34h-.73v-5.3h.73v2.29h3V150.5Z" transform="translate(-141.5 -135.65)"/><path class="cls-1" d="M187.11,154.1c0,1.08-.76,1.7-2,1.7H183v-5.3h.73v1.89h1.48C186.36,152.4,187.11,153,187.11,154.1Zm-.73,0c0-.67-.43-1-1.22-1h-1.48v2.06h1.48C185.95,155.13,186.38,154.77,186.38,154.1Zm2.5-3.6v5.3h-.73v-5.3Z" transform="translate(-141.5 -135.65)"/><path class="cls-1" d="M195.2,150.5v5.3h-.73v-3.24c0-.2,0-.41,0-.61-.16.2-.32.41-.5.6l-3,3.25h-.26v-5.3h.73v3.14c0,.24,0,.48,0,.71.19-.24.4-.47.6-.7l2.88-3.15Zm-3.71-2,.44-.34a1.29,1.29,0,0,0,1.08.61,1.32,1.32,0,0,0,1.08-.61l.43.34a1.63,1.63,0,0,1-1.51.86A1.66,1.66,0,0,1,191.49,148.52Z" transform="translate(-141.5 -135.65)"/><path class="cls-1" d="M205,155.13v2.08h-.71v-1.4h-4.44v-5.3h.73v4.63h2.91V150.5h.73v4.63Z" transform="translate(-141.5 -135.65)"/><path class="cls-1" d="M210.79,152.94a4,4,0,0,1,0,.52h-4.25a1.94,1.94,0,0,0,2,1.8,2.06,2.06,0,0,0,1.62-.65l.42.53a2.8,2.8,0,0,1-2,.8,2.78,2.78,0,0,1-.06-5.56A2.29,2.29,0,0,1,210.79,152.94Zm-4.26-.13h3.54a1.59,1.59,0,0,0-1.64-1.75A1.9,1.9,0,0,0,206.53,152.8Z" transform="translate(-141.5 -135.65)"/><path class="cls-1" d="M216.62,150.5v5.3h-.73v-2.34h-3v2.34h-.73v-5.3h.73v2.29h3V150.5Z" transform="translate(-141.5 -135.65)"/><path class="cls-1" d="M219.49,151.17H217.8v-.67h4.13v.67h-1.7v4.63h-.73Z" transform="translate(-141.5 -135.65)"/><path class="cls-1" d="M228.5,153.13a2.62,2.62,0,0,1-2.63,2.79,2.53,2.53,0,0,1-2.06-1c0,.41,0,.9,0,1.43v2.09h-.73V150.5h.55l.16.89a2.51,2.51,0,0,1,2.07-1A2.59,2.59,0,0,1,228.5,153.13Zm-.73,0a2,2,0,1,0-4,0,2,2,0,0,0,2,2.11A1.93,1.93,0,0,0,227.77,153.16Z" transform="translate(-141.5 -135.65)"/></svg>