<svg xmlns="http://www.w3.org/2000/svg" xmlns:xlink="http://www.w3.org/1999/xlink" width="17" height="29" viewBox="0 0 17 29"><defs><path id="fpuka" d="M1301 816.69a8 8 0 0 1 8-8h1a8 8 0 0 1 8 8v11.63a8 8 0 0 1-8 8h-1a8 8 0 0 1-8-8z"/><path id="fpukc" d="M1308 814.5a1.5 1.5 0 1 1 3 0v4a1.5 1.5 0 1 1-3 0z"/><clipPath id="fpukb"><use fill="#fff" xlink:href="#fpuka"/></clipPath><linearGradient id="fpukd" x1="1309" x2="1310" y1="820" y2="813" gradientUnits="userSpaceOnUse"><stop offset="0" stop-color="#6ab717"/><stop offset="1" stop-color="#a3d252"/></linearGradient></defs><g><g transform="translate(-1301 -808)"><use fill="#fff" fill-opacity="0" stroke="#000" stroke-miterlimit="50" stroke-width="3.74" clip-path="url(&quot;#fpukb&quot;)" xlink:href="#fpuka"/></g><g transform="translate(-1301 -808)"><use fill="url(#fpukd)" xlink:href="#fpukc"/></g></g></svg>