<svg xmlns="http://www.w3.org/2000/svg" xmlns:xlink="http://www.w3.org/1999/xlink"><defs><path id="tbwaa" d="M916 1042.5a7.5 7.5 0 0 1 7.5-7.5h81a7.5 7.5 0 1 1 0 15h-81a7.5 7.5 0 0 1-7.5-7.5z"/><path id="1h74a" d="M1514 64a3 3 0 0 1 3-3h27a3 3 0 0 1 0 6h-27a3 3 0 0 1-3-3z"/><path id="1h74b" d="M1514 74a3 3 0 0 1 3-3h27a3 3 0 0 1 0 6h-27a3 3 0 0 1-3-3z"/><path id="1h74c" d="M1514 84a3 3 0 0 1 3-3h27a3 3 0 0 1 0 6h-27a3 3 0 0 1-3-3z"/><path id="fpuka" d="M1301 816.69a8 8 0 0 1 8-8h1a8 8 0 0 1 8 8v11.63a8 8 0 0 1-8 8h-1a8 8 0 0 1-8-8z"/><path id="fpukc" d="M1308 814.5a1.5 1.5 0 1 1 3 0v4a1.5 1.5 0 1 1-3 0z"/><clipPath id="fpukb"><use xlink:href="#fpuka"/></clipPath><linearGradient id="fpukd" x1="1309" x2="1310" y1="820" y2="813" gradientUnits="userSpaceOnUse"><stop offset="0" stop-color="#6ab717"/><stop offset="1" stop-color="#a3d252"/></linearGradient><path id="ohysa" d="M1301 816.69a8 8 0 0 1 8-8h1a8 8 0 0 1 8 8v11.63a8 8 0 0 1-8 8h-1a8 8 0 0 1-8-8z"/><path id="ohysc" d="M1308 814.5a1.5 1.5 0 1 1 3 0v4a1.5 1.5 0 1 1-3 0z"/><clipPath id="ohysb"><use xlink:href="#ohysa"/></clipPath><linearGradient id="ohysd" x1="1309" x2="1310" y1="820" y2="813" gradientUnits="userSpaceOnUse"><stop offset="0" stop-color="#6ab717"/><stop offset="1" stop-color="#a3d252"/></linearGradient></defs><symbol id="sapn" viewBox="0 0 96 15"><g><g transform="translate(-916 -1035)"><use xlink:href="#tbwaa"/></g></g></symbol><symbol id="hamburger" viewBox="0 0 33 26"><g><g transform="translate(-1514 -61)"><use xlink:href="#1h74a"/></g><g transform="translate(-1514 -61)"><use xlink:href="#1h74b"/></g><g transform="translate(-1514 -61)"><use xlink:href="#1h74c"/></g></g></symbol><symbol id="mouse" viewBox="0 0 17 29"><g><g transform="translate(-1301 -808)"><use fill-opacity="0" stroke-miterlimit="50" stroke-width="3.74" clip-path="url(&quot;#fpukb&quot;)" xlink:href="#fpuka"/></g><g transform="translate(-1301 -808)"><use fill="url(#fpukd)" xlink:href="#fpukc"/></g></g></symbol><symbol id="mouse2" viewBox="0 0 17 29"><g><g transform="translate(-1301 -808)"><use fill-opacity="0" stroke-miterlimit="50" stroke-width="3.74" clip-path="url(&quot;#ohysb&quot;)" xlink:href="#ohysa"/></g><g transform="translate(-1301 -808)"><use fill="url(#ohysd)" xlink:href="#ohysc"/></g></g></symbol></svg>