<svg xmlns="http://www.w3.org/2000/svg" xmlns:xlink="http://www.w3.org/1999/xlink"><defs><style>.cls-1{fill:#1a1a1a;}.cls-2{fill:#69b620;}</style><path id="tbwaa" d="M916 1042.5a7.5 7.5 0 0 1 7.5-7.5h81a7.5 7.5 0 1 1 0 15h-81a7.5 7.5 0 0 1-7.5-7.5z"/><path id="gp5ya" d="M1369.075 7620.332l19.092 19.092a3 3 0 1 1-4.242 4.242l-19.092-19.091a3 3 0 1 1 4.242-4.243z"/><path id="gp5yb" d="M1383.912 7619.86l-19.02 19.02a2.99 2.99 0 0 0 4.227 4.228l19.02-19.02a2.989 2.989 0 1 0-4.227-4.227z"/><path id="q4nga" d="M873.595 9902.588l8.809 9.2v-18.401z"/><path id="7aara" d="M1045.92 9903.086l-8.83 9.224v-18.447z"/><path id="oeiya" d="M989.173 1120.346a.623.623 0 0 1-.173-.404c0-.115.058-.288.173-.404l.808-.807c.23-.231.577-.231.807 0l.058.057 3.173 3.404a.279.279 0 0 0 .404 0l7.73-8.019h.059c.23-.23.576-.23.807 0l.808.808c.23.23.23.577 0 .807l-9.23 9.577a.524.524 0 0 1-.405.173.524.524 0 0 1-.404-.173l-4.5-4.846-.115-.173z"/><path id="1h74a" d="M1514 64a3 3 0 0 1 3-3h27a3 3 0 0 1 0 6h-27a3 3 0 0 1-3-3z"/><path id="1h74b" d="M1514 74a3 3 0 0 1 3-3h27a3 3 0 0 1 0 6h-27a3 3 0 0 1-3-3z"/><path id="1h74c" d="M1514 84a3 3 0 0 1 3-3h27a3 3 0 0 1 0 6h-27a3 3 0 0 1-3-3z"/><style>.cls-1{fill:#69b620;}</style><style>.cls-1{fill:#1a1a1a;}</style><path id="fpuka" d="M1301 816.69a8 8 0 0 1 8-8h1a8 8 0 0 1 8 8v11.63a8 8 0 0 1-8 8h-1a8 8 0 0 1-8-8z"/><path id="fpukc" d="M1308 814.5a1.5 1.5 0 1 1 3 0v4a1.5 1.5 0 1 1-3 0z"/><clipPath id="fpukb"><use xlink:href="#fpuka"/></clipPath><linearGradient id="fpukd" x1="1309" x2="1310" y1="820" y2="813" gradientUnits="userSpaceOnUse"><stop offset="0" stop-color="#6ab717"/><stop offset="1" stop-color="#a3d252"/></linearGradient><path id="ohysa" d="M1301 816.69a8 8 0 0 1 8-8h1a8 8 0 0 1 8 8v11.63a8 8 0 0 1-8 8h-1a8 8 0 0 1-8-8z"/><path id="ohysc" d="M1308 814.5a1.5 1.5 0 1 1 3 0v4a1.5 1.5 0 1 1-3 0z"/><clipPath id="ohysb"><use xlink:href="#ohysa"/></clipPath><linearGradient id="ohysd" x1="1309" x2="1310" y1="820" y2="813" gradientUnits="userSpaceOnUse"><stop offset="0" stop-color="#6ab717"/><stop offset="1" stop-color="#a3d252"/></linearGradient></defs><symbol id="logo" viewBox="0 0 391.14 115.32"><title>Logo</title><path class="cls-1" d="M353.68,369.2h8.41a6.92,6.92,0,0,1,7.17,6.94c0,3.18-2.28,6.7-7.3,6.7h-6.07V392h-2.21Zm8.24,11.63c3.49,0,5.13-2.34,5.13-4.72a4.84,4.84,0,0,0-5-4.89h-6.16v9.62Z" transform="translate(-204.86 -343.39)"/><path class="cls-1" d="M385.12,384a11,11,0,0,1-.1,1.44H373.16a5.42,5.42,0,0,0,5.53,5,5.75,5.75,0,0,0,4.52-1.81l1.17,1.47a7.81,7.81,0,0,1-5.66,2.25,7.78,7.78,0,0,1-.17-15.55C382.67,376.81,385.12,379.65,385.12,384Zm-11.9-.37h9.89c-.07-3.15-1.88-4.89-4.59-4.89A5.31,5.31,0,0,0,373.22,383.61Z" transform="translate(-204.86 -343.39)"/><path class="cls-1" d="M389.08,377.18h9.58v1.87h-7.54V392h-2Z" transform="translate(-204.86 -343.39)"/><path class="cls-1" d="M414.52,377.18V392h-2v-9c0-.57,0-1.14,0-1.71-.43.57-.9,1.14-1.41,1.68L402.83,392h-.74V377.18h2V386c0,.67,0,1.34-.07,2,.53-.67,1.11-1.31,1.68-1.94l8-8.81Z" transform="translate(-204.86 -343.39)"/><path class="cls-1" d="M418.69,384.58a7.67,7.67,0,1,1,7.64,7.77A7.41,7.41,0,0,1,418.69,384.58Zm13.27,0a5.5,5.5,0,0,0-5.63-5.86c-3.29,0-5.56,2.44-5.56,5.86s2.28,5.86,5.56,5.86A5.5,5.5,0,0,0,432,384.58Z" transform="translate(-204.86 -343.39)"/><path class="cls-1" d="M450.53,377.18V392h-2v-6.53h-8.24V392h-2V377.18h2v6.4h8.24v-6.4Z" transform="translate(-204.86 -343.39)"/><path class="cls-1" d="M466.79,382.13V392h-1.51l-.37-2.68a6.24,6.24,0,0,1-5.6,2.95c-2.88,0-4.73-1.57-4.73-4.12,0-3.32,3.05-5.23,7.41-5.23a20.81,20.81,0,0,1,2.71.13v-1c0-2.08-1.47-3.12-3.75-3.12a11.61,11.61,0,0,0-4.89,1.24l-.7-1.74a13.59,13.59,0,0,1,5.8-1.41C464.55,377,466.79,378.78,466.79,382.13Zm-2.08,2.61a17.66,17.66,0,0,0-2.41-.13c-3.48,0-5.56,1.21-5.56,3.39,0,1.47,1.07,2.34,2.92,2.34C462.7,390.34,464.61,388.13,464.71,384.75Z" transform="translate(-204.86 -343.39)"/><path class="cls-1" d="M469.48,390.34c2.78-.3,3.65-2.08,3.92-5.36l.64-7.81h9.58V392h-2v-12.9h-5.7l-.47,5.73c-.37,4.89-1.84,6.87-5.7,7.37Z" transform="translate(-204.86 -343.39)"/><path class="cls-1" d="M500.49,387.23c0,3-2.11,4.76-5.46,4.76h-6.17V377.18h2v5.29H495C498.38,382.47,500.49,384.21,500.49,387.23Zm-2,0c0-1.88-1.21-2.88-3.42-2.88H490.9v5.76H495C497.24,390.11,498.44,389.1,498.44,387.23Z" transform="translate(-204.86 -343.39)"/><path class="cls-1" d="M516.54,377.18V392h-2v-6.53h-8.24V392h-2V377.18h2v6.4h8.24v-6.4Z" transform="translate(-204.86 -343.39)"/><path class="cls-1" d="M533.41,387.23c0,3-2.11,4.76-5.46,4.76h-6.17V377.18h2v5.29h4.12C531.3,382.47,533.41,384.21,533.41,387.23Zm-2,0c0-1.88-1.21-2.88-3.42-2.88h-4.12v5.76h4.12C530.16,390.11,531.36,389.1,531.36,387.23Zm7-10.05V392h-2V377.18Z" transform="translate(-204.86 -343.39)"/><path class="cls-1" d="M556,377.18V392h-2v-9c0-.57,0-1.14,0-1.71-.43.57-.9,1.14-1.41,1.68L544.31,392h-.74V377.18h2V386c0,.67,0,1.34-.07,2,.53-.67,1.11-1.31,1.68-1.94l8-8.81Zm-10.35-5.53,1.24-.94a3.6,3.6,0,0,0,3,1.71,3.69,3.69,0,0,0,3-1.71l1.21.94a4.55,4.55,0,0,1-4.22,2.41A4.64,4.64,0,0,1,545.65,371.65Z" transform="translate(-204.86 -343.39)"/><path class="cls-1" d="M364.53,425.35v.17H362l-7-6.87v6.87h-2V410.7h2v6.5l6.4-6.5h2.48v.1l-7,7.07Z" transform="translate(-204.86 -343.39)"/><path class="cls-1" d="M382.57,418c0,4.56-3.08,7.81-7.34,7.81a7.07,7.07,0,0,1-5.76-2.78c0,1.14.07,2.52.07,4v5.83h-2V410.7H369l.44,2.48a7,7,0,0,1,5.8-2.78C379.49,410.4,382.57,413.62,382.57,418Zm-2,.1c0-3.42-2.25-5.83-5.43-5.83a5.46,5.46,0,0,0-5.66,5.73,5.54,5.54,0,0,0,5.66,5.9C378.28,423.94,380.53,421.53,380.53,418.14Z" transform="translate(-204.86 -343.39)"/><path class="cls-1" d="M399.74,417.51a10.58,10.58,0,0,1-.1,1.44H387.77a5.42,5.42,0,0,0,5.53,5,5.75,5.75,0,0,0,4.52-1.81l1.17,1.47a7.81,7.81,0,0,1-5.66,2.25,7.78,7.78,0,0,1-.17-15.55C397.29,410.33,399.74,413.18,399.74,417.51Zm-11.9-.37h9.89c-.07-3.15-1.88-4.89-4.59-4.89A5.31,5.31,0,0,0,387.84,417.14Z" transform="translate(-204.86 -343.39)"/><path class="cls-1" d="M417.3,423.64v5.8h-2v-3.92h-12v3.92h-2v-5.8h1.94a10.4,10.4,0,0,0,1.41-5l.77-7.94h9.75v12.93ZM406.65,419a12,12,0,0,1-1.14,4.66h7.64v-11h-5.86Z" transform="translate(-204.86 -343.39)"/><path class="cls-1" d="M433.06,410.7v14.81h-2v-9c0-.57,0-1.14,0-1.71-.43.57-.9,1.14-1.41,1.68l-8.28,9.08h-.74V410.7h2v8.78c0,.67,0,1.34-.07,2,.53-.67,1.11-1.31,1.68-1.94l8-8.81Z" transform="translate(-204.86 -343.39)"/><path class="cls-1" d="M441.08,412.58h-4.72V410.7h11.53v1.87h-4.76v12.94h-2Z" transform="translate(-204.86 -343.39)"/><path class="cls-1" d="M463.5,410.7v14.81h-2V419h-8.24v6.53h-2V410.7h2v6.4h8.24v-6.4Z" transform="translate(-204.86 -343.39)"/><path class="cls-1" d="M480.37,420.75c0,3-2.11,4.76-5.46,4.76h-6.17V410.7h2V416h4.12C478.26,416,480.37,417.74,480.37,420.75Zm-2,0c0-1.88-1.21-2.88-3.42-2.88h-4.12v5.76h4.12C477.12,423.64,478.32,422.63,478.32,420.75Zm7-10.05v14.81h-2V410.7Z" transform="translate(-204.86 -343.39)"/><path class="cls-1" d="M503,410.7v14.81h-2v-9c0-.57,0-1.14,0-1.71-.43.57-.9,1.14-1.41,1.68l-8.28,9.08h-.74V410.7h2v8.78c0,.67,0,1.34-.07,2,.53-.67,1.11-1.31,1.68-1.94l8-8.81Zm-10.35-5.53,1.24-.94a3.6,3.6,0,0,0,3,1.71,3.69,3.69,0,0,0,3-1.71l1.21.94a4.55,4.55,0,0,1-4.22,2.41A4.64,4.64,0,0,1,492.61,405.17Z" transform="translate(-204.86 -343.39)"/><path class="cls-1" d="M530.22,423.64v5.8h-2v-3.92h-12.4V410.7h2v12.93H526V410.7h2v12.93Z" transform="translate(-204.86 -343.39)"/><path class="cls-1" d="M546.52,417.51a11,11,0,0,1-.1,1.44H534.56a5.42,5.42,0,0,0,5.53,5,5.75,5.75,0,0,0,4.52-1.81l1.17,1.47a7.81,7.81,0,0,1-5.66,2.25,7.78,7.78,0,0,1-.17-15.55C544.07,410.33,546.52,413.18,546.52,417.51Zm-11.9-.37h9.89c-.07-3.15-1.88-4.89-4.59-4.89A5.31,5.31,0,0,0,534.62,417.14Z" transform="translate(-204.86 -343.39)"/><path class="cls-1" d="M562.81,410.7v14.81h-2V419h-8.24v6.53h-2V410.7h2v6.4h8.24v-6.4Z" transform="translate(-204.86 -343.39)"/><path class="cls-1" d="M570.83,412.58h-4.72V410.7h11.53v1.87h-4.76v12.94h-2Z" transform="translate(-204.86 -343.39)"/><path class="cls-1" d="M596,418c0,4.56-3.08,7.81-7.34,7.81a7.07,7.07,0,0,1-5.76-2.78c0,1.14.07,2.52.07,4v5.83h-2V410.7h1.54l.44,2.48a7,7,0,0,1,5.8-2.78C592.92,410.4,596,413.62,596,418Zm-2,.1c0-3.42-2.25-5.83-5.43-5.83a5.46,5.46,0,0,0-5.66,5.73,5.54,5.54,0,0,0,5.66,5.9C591.71,423.94,594,421.53,594,418.14Z" transform="translate(-204.86 -343.39)"/><path class="cls-2" d="M314.29,376.27c-17,0-28.67,4.35-29.06,4.53a2.14,2.14,0,0,0-1,2.91c-3.27-1.24-7.83-3-12.4-5.09-7.79-3.48-12.83-2.41-18.4,2H236.1c.09-.69.17-1.35.22-2a2.15,2.15,0,0,0-.67-1.76c-3.71-3.51-24.46-4.91-24.46-4.91a56,56,0,0,0-6.22,21.7,62.13,62.13,0,0,0,2.42,21.55h18.12a2.16,2.16,0,0,0,2.05-1.49l.51-1.58,1.6,1.66c1.93,2,3.92,4.1,5.26,5.23,8.05,6.74,17.73,14,19.66,15.29a16.59,16.59,0,0,0,7.68,2.52,7.44,7.44,0,0,0,4.91-1.44,6.73,6.73,0,0,0,4.92-.05,8.52,8.52,0,0,0,4.5-4.16,8.36,8.36,0,0,0,5.43-.78,7.34,7.34,0,0,0,3.61-3.77,7.07,7.07,0,0,0,5-1.78,6.81,6.81,0,0,0,2.33-6.55l3.44-2.31c.24.77.44,1.44.58,2a2.16,2.16,0,0,0,2.08,1.59h15.6c1.19,0,4.82-15.86,4.18-24.1S315.48,376.27,314.29,376.27Zm-90.35,34.6h-13s-1.88-5-1.43-16.4a47.19,47.19,0,0,1,4.73-18c7,.55,15,1.71,17.68,3C230.73,389,225.55,405.79,223.94,410.87Zm63.86,10.67a2.41,2.41,0,0,1-2.62.54c-1.67-1.35-8.46-8.31-12.68-12.71a2.16,2.16,0,1,0-3.12,3c1,1,9.08,9.47,12.32,12.42a3,3,0,0,1-1.59,1.73,3.32,3.32,0,0,1-3.37.08l-.07-.05,0-.06c-2.59-2.07-9.1-9-10.57-10.59a2.16,2.16,0,1,0-3.19,2.93c.07.07,6.41,6.92,10,10.13a4.17,4.17,0,0,1-2.3,2.33,2.28,2.28,0,0,1-2.48-.38l0,0,0,0c-3.08-2.6-9.39-9.32-10.63-10.64a2.16,2.16,0,1,0-3.16,3c1.46,1.57,5.82,6.19,9.1,9.27a7.49,7.49,0,0,1-1,.06,12.45,12.45,0,0,1-5.3-1.81c-1.52-1-11-8.1-19.26-15-1.15-1-3.15-3.06-4.92-4.9-1.3-1.36-2.49-2.59-3.28-3.33,1.81-6,4.42-15.1,5.86-22.55h13.27c-3,3-6.93,8.92-5.9,13.3a5.35,5.35,0,0,0,3.72,3.9c4.9,1.62,9.37.07,12.7-4.35a10.92,10.92,0,0,0,3.25-1c.41-.18.88-.39,1.51-.65,2.47,2.32,5.81,5,9.33,7.87,6.36,5.14,13.57,11,15.19,14.35A2.53,2.53,0,0,1,287.8,421.54Zm3.24-7.19c-3-4-9.1-8.95-15.06-13.77-3.93-3.17-7.64-6.18-10-8.54a2.16,2.16,0,0,0-2.26-.51c-1.46.53-2.36.93-3.07,1.25a7.15,7.15,0,0,1-2.9.8,2.16,2.16,0,0,0-1.58.95c-3.06,4.57-6.22,4.18-8.34,3.47-.67-.22-.8-.51-.86-.79-.45-1.9,1.83-6.32,4.78-9.27,7-7,10.65-8.79,18.31-5.37,7.27,3.25,14.52,5.9,16.76,6.7,2.54,6.17,6,15.76,8.19,22.43Zm20.41.84H300.66c-2.05-6.68-8.11-24.09-11.48-31.29a83.48,83.48,0,0,1,22.09-3.29s3,6.37,3,17.55S311.45,415.19,311.45,415.19Z" transform="translate(-204.86 -343.39)"/><path class="cls-2" d="M227.89,357.5H233a.7.7,0,0,0,.4-.13,52.94,52.94,0,0,1,60.69,0,.7.7,0,0,0,.4.13h5.06a.7.7,0,0,0,.44-1.24,57.45,57.45,0,0,0-72.49,0,.7.7,0,0,0,.44,1.24Z" transform="translate(-204.86 -343.39)"/><path class="cls-2" d="M299.5,444.58h-5.06a.7.7,0,0,0-.4.13,52.94,52.94,0,0,1-60.69,0,.7.7,0,0,0-.4-.13h-5.06a.7.7,0,0,0-.44,1.24,57.45,57.45,0,0,0,72.49,0,.7.7,0,0,0-.44-1.24Z" transform="translate(-204.86 -343.39)"/></symbol><symbol id="sapn" viewBox="0 0 96 15"><g><g transform="translate(-916 -1035)"><use xlink:href="#tbwaa"/></g></g></symbol><symbol id="call" viewBox="0 0 348.077 348.077">
<g>
	<g>
		<g>
			<path d="M340.273,275.083l-53.755-53.761c-10.707-10.664-28.438-10.34-39.518,0.744l-27.082,27.076
				c-1.711-0.943-3.482-1.928-5.344-2.973c-17.102-9.476-40.509-22.464-65.14-47.113c-24.704-24.701-37.704-48.144-47.209-65.257
				c-1.003-1.813-1.964-3.561-2.913-5.221l18.176-18.149l8.936-8.947c11.097-11.1,11.403-28.826,0.721-39.521L73.39,8.194
				C62.708-2.486,44.969-2.162,33.872,8.938l-15.15,15.237l0.414,0.411c-5.08,6.482-9.325,13.958-12.484,22.02
				C3.74,54.28,1.927,61.603,1.098,68.941C-6,127.785,20.89,181.564,93.866,254.541c100.875,100.868,182.167,93.248,185.674,92.876
				c7.638-0.913,14.958-2.738,22.397-5.627c7.992-3.122,15.463-7.361,21.941-12.43l0.331,0.294l15.348-15.029
				C350.631,303.527,350.95,285.795,340.273,275.083z"/>
		</g>
	</g>
</g>
<g>
</g>
<g>
</g>
<g>
</g>
<g>
</g>
<g>
</g>
<g>
</g>
<g>
</g>
<g>
</g>
<g>
</g>
<g>
</g>
<g>
</g>
<g>
</g>
<g>
</g>
<g>
</g>
<g>
</g>
</symbol><symbol id="man" viewBox="0 0 350 350">
<g>
	<path d="M175,171.173c38.914,0,70.463-38.318,70.463-85.586C245.463,38.318,235.105,0,175,0s-70.465,38.318-70.465,85.587
		C104.535,132.855,136.084,171.173,175,171.173z"/>
	<path d="M41.909,301.853C41.897,298.971,41.885,301.041,41.909,301.853L41.909,301.853z"/>
	<path d="M308.085,304.104C308.123,303.315,308.098,298.63,308.085,304.104L308.085,304.104z"/>
	<path d="M307.935,298.397c-1.305-82.342-12.059-105.805-94.352-120.657c0,0-11.584,14.761-38.584,14.761
		s-38.586-14.761-38.586-14.761c-81.395,14.69-92.803,37.805-94.303,117.982c-0.123,6.547-0.18,6.891-0.202,6.131
		c0.005,1.424,0.011,4.058,0.011,8.651c0,0,19.592,39.496,133.08,39.496c113.486,0,133.08-39.496,133.08-39.496
		c0-2.951,0.002-5.003,0.005-6.399C308.062,304.575,308.018,303.664,307.935,298.397z"/>
</g>
<g>
</g>
<g>
</g>
<g>
</g>
<g>
</g>
<g>
</g>
<g>
</g>
<g>
</g>
<g>
</g>
<g>
</g>
<g>
</g>
<g>
</g>
<g>
</g>
<g>
</g>
<g>
</g>
<g>
</g>
</symbol><symbol id="close" viewBox="0 0 25 26"><g><g transform="translate(-1364 -7619)"><use xlink:href="#gp5ya"/></g><g transform="translate(-1364 -7619)"><use xlink:href="#gp5yb"/></g></g></symbol><symbol id="left" viewBox="0 0 10 19"><g><g transform="translate(-873 -9893)"><use xlink:href="#q4nga"/></g></g></symbol><symbol id="right" viewBox="0 0 9 19"><g><g transform="translate(-1037 -9894)"><use xlink:href="#7aara"/></g></g></symbol><symbol id="checked" viewBox="0 0 15 12"><g><g transform="translate(-989 -1114)"><use xlink:href="#oeiya"/></g></g></symbol><symbol id="hamburger" viewBox="0 0 33 26"><g><g transform="translate(-1514 -61)"><use xlink:href="#1h74a"/></g><g transform="translate(-1514 -61)"><use xlink:href="#1h74b"/></g><g transform="translate(-1514 -61)"><use xlink:href="#1h74c"/></g></g></symbol><symbol id="logoHands" viewBox="0 0 40.82 41.27"><title>LogoHands</title><path class="cls-1" d="M127.67,138.18a31.45,31.45,0,0,0-10.4,1.62.77.77,0,0,0-.36,1c-1.17-.44-2.8-1.09-4.44-1.82-2.79-1.25-4.59-.86-6.58.71h-6.2c0-.25.06-.48.08-.71a.77.77,0,0,0-.24-.63c-1.33-1.26-8.76-1.76-8.76-1.76a20,20,0,0,0-2.23,7.77,22.24,22.24,0,0,0,.87,7.71H95.9a.77.77,0,0,0,.74-.53l.18-.56.57.6c.69.72,1.4,1.47,1.88,1.87,2.88,2.41,6.35,5,7,5.47a5.94,5.94,0,0,0,2.75.9,2.66,2.66,0,0,0,1.76-.52,2.41,2.41,0,0,0,1.76,0,3,3,0,0,0,1.61-1.49,3,3,0,0,0,1.94-.28,2.63,2.63,0,0,0,1.29-1.35,2.53,2.53,0,0,0,1.78-.64,2.44,2.44,0,0,0,.83-2.34l1.23-.83c.09.28.16.52.21.7a.77.77,0,0,0,.75.57h5.58c.43,0,1.73-5.68,1.5-8.63S128.1,138.18,127.67,138.18ZM95.33,150.56H90.66a16.71,16.71,0,0,1-.51-5.87,16.89,16.89,0,0,1,1.69-6.45,25.35,25.35,0,0,1,6.33,1.09A81.22,81.22,0,0,1,95.33,150.56Zm22.86,3.82a.86.86,0,0,1-.94.19c-.6-.48-3-3-4.54-4.55a.77.77,0,1,0-1.12,1.07c.36.37,3.25,3.39,4.41,4.44a1.07,1.07,0,0,1-.57.62,1.19,1.19,0,0,1-1.21,0l0,0,0,0c-.93-.74-3.26-3.22-3.78-3.79a.77.77,0,1,0-1.14,1s2.3,2.48,3.58,3.63a1.49,1.49,0,0,1-.82.83.82.82,0,0,1-.89-.14h0c-1.1-.93-3.36-3.33-3.8-3.81a.77.77,0,1,0-1.13,1.06c.52.56,2.08,2.22,3.26,3.32l-.37,0a4.46,4.46,0,0,1-1.9-.65c-.54-.36-4-2.9-6.89-5.36-.41-.35-1.13-1.09-1.76-1.75-.47-.49-.89-.93-1.17-1.19.65-2.13,1.58-5.41,2.1-8.07h4.75c-1.06,1.06-2.48,3.19-2.11,4.76a1.91,1.91,0,0,0,1.33,1.39,3.87,3.87,0,0,0,4.55-1.56,3.91,3.91,0,0,0,1.16-.37l.54-.23c.89.83,2.08,1.8,3.34,2.82,2.28,1.84,4.86,3.93,5.44,5.13A.91.91,0,0,1,118.19,154.38Zm1.16-2.57a35.38,35.38,0,0,0-5.39-4.93c-1.41-1.14-2.73-2.21-3.58-3.06a.77.77,0,0,0-.81-.18c-.52.19-.84.33-1.1.45a2.56,2.56,0,0,1-1,.28.77.77,0,0,0-.57.34c-1.09,1.64-2.23,1.5-3,1.24-.24-.08-.28-.18-.31-.28-.16-.68.65-2.26,1.71-3.32,2.52-2.52,3.81-3.15,6.55-1.92s5.2,2.11,6,2.4c.91,2.21,2.14,5.64,2.93,8Zm7.31.3h-3.86c-.73-2.39-2.9-8.62-4.11-11.2a29.88,29.88,0,0,1,7.91-1.18,15.86,15.86,0,0,1,1.08,6.28A15.12,15.12,0,0,1,126.65,152.11Z" transform="translate(-88.5 -126.41)"/><path class="cls-1" d="M96.75,131.46h1.81a.25.25,0,0,0,.14,0,18.95,18.95,0,0,1,21.72,0,.25.25,0,0,0,.14,0h1.81a.25.25,0,0,0,.16-.44,20.56,20.56,0,0,0-25.95,0,.25.25,0,0,0,.16.44Z" transform="translate(-88.5 -126.41)"/><path class="cls-1" d="M122.38,162.63h-1.81a.25.25,0,0,0-.14,0,18.95,18.95,0,0,1-21.72,0,.25.25,0,0,0-.14,0H96.75a.25.25,0,0,0-.16.44,20.56,20.56,0,0,0,25.95,0,.25.25,0,0,0-.16-.44Z" transform="translate(-88.5 -126.41)"/></symbol><symbol id="logoText" viewBox="0 0 87 22.79"><title>LogoText</title><path class="cls-1" d="M141.77,135.65h3a2.48,2.48,0,0,1,2.57,2.48,2.41,2.41,0,0,1-2.61,2.4h-2.17v3.27h-.79Zm3,4.16a1.68,1.68,0,0,0,1.83-1.69,1.73,1.73,0,0,0-1.79-1.75h-2.21v3.44Z" transform="translate(-141.5 -135.65)"/><path class="cls-1" d="M153,140.94a4,4,0,0,1,0,.52h-4.25a1.94,1.94,0,0,0,2,1.8,2.06,2.06,0,0,0,1.62-.65l.42.53a2.8,2.8,0,0,1-2,.8,2.78,2.78,0,0,1-.06-5.56A2.29,2.29,0,0,1,153,140.94Zm-4.26-.13h3.54a1.59,1.59,0,0,0-1.64-1.75A1.9,1.9,0,0,0,148.76,140.8Z" transform="translate(-141.5 -135.65)"/><path class="cls-1" d="M154.44,138.5h3.43v.67h-2.7v4.63h-.73Z" transform="translate(-141.5 -135.65)"/><path class="cls-1" d="M163.54,138.5v5.3h-.73v-3.24c0-.2,0-.41,0-.61-.16.2-.32.41-.5.6l-3,3.25h-.26v-5.3h.73v3.14c0,.24,0,.48,0,.71.19-.24.4-.47.6-.7l2.88-3.15Z" transform="translate(-141.5 -135.65)"/><path class="cls-1" d="M165,141.15a2.75,2.75,0,1,1,2.73,2.78A2.65,2.65,0,0,1,165,141.15Zm4.75,0a2,2,0,1,0-2,2.1A2,2,0,0,0,169.78,141.15Z" transform="translate(-141.5 -135.65)"/><path class="cls-1" d="M176.43,138.5v5.3h-.73v-2.34h-3v2.34H172v-5.3h.73v2.29h3V138.5Z" transform="translate(-141.5 -135.65)"/><path class="cls-1" d="M182.25,140.27v3.53h-.54l-.13-1a2.23,2.23,0,0,1-2,1.05c-1,0-1.69-.56-1.69-1.47,0-1.19,1.09-1.87,2.65-1.87a7.45,7.45,0,0,1,1,0v-.36c0-.74-.53-1.12-1.34-1.12a4.15,4.15,0,0,0-1.75.44l-.25-.62a4.87,4.87,0,0,1,2.07-.5A1.77,1.77,0,0,1,182.25,140.27Zm-.74.94a6.32,6.32,0,0,0-.86,0c-1.25,0-2,.43-2,1.21,0,.53.38.84,1,.84A1.82,1.82,0,0,0,181.51,141.21Z" transform="translate(-141.5 -135.65)"/><path class="cls-1" d="M183.21,143.21c1-.11,1.31-.74,1.4-1.92l.23-2.79h3.43v5.3h-.73v-4.62h-2l-.17,2.05c-.13,1.75-.66,2.46-2,2.64Z" transform="translate(-141.5 -135.65)"/><path class="cls-1" d="M194.31,142.1c0,1.08-.76,1.7-2,1.7h-2.21v-5.3h.73v1.89h1.48C193.56,140.4,194.31,141,194.31,142.1Zm-.73,0c0-.67-.43-1-1.22-1h-1.48v2.06h1.48C193.15,143.13,193.58,142.77,193.58,142.1Z" transform="translate(-141.5 -135.65)"/><path class="cls-1" d="M200.06,138.5v5.3h-.73v-2.34h-3v2.34h-.73v-5.3h.73v2.29h3V138.5Z" transform="translate(-141.5 -135.65)"/><path class="cls-1" d="M206.1,142.1c0,1.08-.76,1.7-2,1.7h-2.21v-5.3h.73v1.89h1.48C205.34,140.4,206.1,141,206.1,142.1Zm-.73,0c0-.67-.43-1-1.22-1h-1.48v2.06h1.48C204.93,143.13,205.36,142.77,205.36,142.1Zm2.5-3.6v5.3h-.73v-5.3Z" transform="translate(-141.5 -135.65)"/><path class="cls-1" d="M214.18,138.5v5.3h-.73v-3.24c0-.2,0-.41,0-.61-.16.2-.32.41-.5.6l-3,3.25h-.26v-5.3h.73v3.14c0,.24,0,.48,0,.71.19-.24.4-.47.6-.7l2.88-3.15Zm-3.71-2,.44-.34a1.29,1.29,0,0,0,1.08.61,1.32,1.32,0,0,0,1.08-.61l.43.34a1.63,1.63,0,0,1-1.51.86A1.66,1.66,0,0,1,210.48,136.52Z" transform="translate(-141.5 -135.65)"/><path class="cls-1" d="M145.65,155.74v.06h-.91l-2.51-2.46v2.46h-.73v-5.3h.73v2.33l2.29-2.33h.89v0l-2.52,2.53Z" transform="translate(-141.5 -135.65)"/><path class="cls-1" d="M152.11,153.13a2.62,2.62,0,0,1-2.63,2.79,2.53,2.53,0,0,1-2.06-1c0,.41,0,.9,0,1.43v2.09h-.73V150.5h.55l.16.89a2.51,2.51,0,0,1,2.07-1A2.59,2.59,0,0,1,152.11,153.13Zm-.73,0a2,2,0,1,0-4,0,2,2,0,0,0,2,2.11A1.93,1.93,0,0,0,151.38,153.16Z" transform="translate(-141.5 -135.65)"/><path class="cls-1" d="M158.25,152.94a3.79,3.79,0,0,1,0,.52H154a1.94,1.94,0,0,0,2,1.8,2.06,2.06,0,0,0,1.62-.65l.42.53a2.8,2.8,0,0,1-2,.8,2.78,2.78,0,0,1-.06-5.56A2.29,2.29,0,0,1,158.25,152.94ZM154,152.8h3.54a1.59,1.59,0,0,0-1.64-1.75A1.9,1.9,0,0,0,154,152.8Z" transform="translate(-141.5 -135.65)"/><path class="cls-1" d="M164.54,155.13v2.08h-.71v-1.4h-4.31v1.4h-.71v-2.08h.7a3.72,3.72,0,0,0,.5-1.79l.28-2.84h3.49v4.63Zm-3.81-1.67a4.31,4.31,0,0,1-.41,1.67h2.73v-3.95H161Z" transform="translate(-141.5 -135.65)"/><path class="cls-1" d="M170.18,150.5v5.3h-.73v-3.24c0-.2,0-.41,0-.61-.16.2-.32.41-.5.6l-3,3.25h-.26v-5.3h.73v3.14c0,.24,0,.48,0,.71.19-.24.4-.47.6-.7l2.88-3.15Z" transform="translate(-141.5 -135.65)"/><path class="cls-1" d="M173.05,151.17h-1.69v-.67h4.13v.67h-1.7v4.63h-.73Z" transform="translate(-141.5 -135.65)"/><path class="cls-1" d="M181.08,150.5v5.3h-.73v-2.34h-3v2.34h-.73v-5.3h.73v2.29h3V150.5Z" transform="translate(-141.5 -135.65)"/><path class="cls-1" d="M187.11,154.1c0,1.08-.76,1.7-2,1.7H183v-5.3h.73v1.89h1.48C186.36,152.4,187.11,153,187.11,154.1Zm-.73,0c0-.67-.43-1-1.22-1h-1.48v2.06h1.48C185.95,155.13,186.38,154.77,186.38,154.1Zm2.5-3.6v5.3h-.73v-5.3Z" transform="translate(-141.5 -135.65)"/><path class="cls-1" d="M195.2,150.5v5.3h-.73v-3.24c0-.2,0-.41,0-.61-.16.2-.32.41-.5.6l-3,3.25h-.26v-5.3h.73v3.14c0,.24,0,.48,0,.71.19-.24.4-.47.6-.7l2.88-3.15Zm-3.71-2,.44-.34a1.29,1.29,0,0,0,1.08.61,1.32,1.32,0,0,0,1.08-.61l.43.34a1.63,1.63,0,0,1-1.51.86A1.66,1.66,0,0,1,191.49,148.52Z" transform="translate(-141.5 -135.65)"/><path class="cls-1" d="M205,155.13v2.08h-.71v-1.4h-4.44v-5.3h.73v4.63h2.91V150.5h.73v4.63Z" transform="translate(-141.5 -135.65)"/><path class="cls-1" d="M210.79,152.94a4,4,0,0,1,0,.52h-4.25a1.94,1.94,0,0,0,2,1.8,2.06,2.06,0,0,0,1.62-.65l.42.53a2.8,2.8,0,0,1-2,.8,2.78,2.78,0,0,1-.06-5.56A2.29,2.29,0,0,1,210.79,152.94Zm-4.26-.13h3.54a1.59,1.59,0,0,0-1.64-1.75A1.9,1.9,0,0,0,206.53,152.8Z" transform="translate(-141.5 -135.65)"/><path class="cls-1" d="M216.62,150.5v5.3h-.73v-2.34h-3v2.34h-.73v-5.3h.73v2.29h3V150.5Z" transform="translate(-141.5 -135.65)"/><path class="cls-1" d="M219.49,151.17H217.8v-.67h4.13v.67h-1.7v4.63h-.73Z" transform="translate(-141.5 -135.65)"/><path class="cls-1" d="M228.5,153.13a2.62,2.62,0,0,1-2.63,2.79,2.53,2.53,0,0,1-2.06-1c0,.41,0,.9,0,1.43v2.09h-.73V150.5h.55l.16.89a2.51,2.51,0,0,1,2.07-1A2.59,2.59,0,0,1,228.5,153.13Zm-.73,0a2,2,0,1,0-4,0,2,2,0,0,0,2,2.11A1.93,1.93,0,0,0,227.77,153.16Z" transform="translate(-141.5 -135.65)"/></symbol><symbol id="mouse" viewBox="0 0 17 29"><g><g transform="translate(-1301 -808)"><use fill-opacity="0" stroke-miterlimit="50" stroke-width="3.74" clip-path="url(&quot;#fpukb&quot;)" xlink:href="#fpuka"/></g><g transform="translate(-1301 -808)"><use fill="url(#fpukd)" xlink:href="#fpukc"/></g></g></symbol><symbol id="mouse2" viewBox="0 0 17 29"><g><g transform="translate(-1301 -808)"><use fill-opacity="0" stroke-miterlimit="50" stroke-width="3.74" clip-path="url(&quot;#ohysb&quot;)" xlink:href="#ohysa"/></g><g transform="translate(-1301 -808)"><use fill="url(#ohysd)" xlink:href="#ohysc"/></g></g></symbol></svg>