<svg id="Слой_1" data-name="Слой 1" xmlns="http://www.w3.org/2000/svg" viewBox="0 0 391.14 115.32"><defs><style>.cls-1{fill:#1a1a1a;}.cls-2{fill:#69b620;}</style></defs><title>Logo</title><path class="cls-1" d="M353.68,369.2h8.41a6.92,6.92,0,0,1,7.17,6.94c0,3.18-2.28,6.7-7.3,6.7h-6.07V392h-2.21Zm8.24,11.63c3.49,0,5.13-2.34,5.13-4.72a4.84,4.84,0,0,0-5-4.89h-6.16v9.62Z" transform="translate(-204.86 -343.39)"/><path class="cls-1" d="M385.12,384a11,11,0,0,1-.1,1.44H373.16a5.42,5.42,0,0,0,5.53,5,5.75,5.75,0,0,0,4.52-1.81l1.17,1.47a7.81,7.81,0,0,1-5.66,2.25,7.78,7.78,0,0,1-.17-15.55C382.67,376.81,385.12,379.65,385.12,384Zm-11.9-.37h9.89c-.07-3.15-1.88-4.89-4.59-4.89A5.31,5.31,0,0,0,373.22,383.61Z" transform="translate(-204.86 -343.39)"/><path class="cls-1" d="M389.08,377.18h9.58v1.87h-7.54V392h-2Z" transform="translate(-204.86 -343.39)"/><path class="cls-1" d="M414.52,377.18V392h-2v-9c0-.57,0-1.14,0-1.71-.43.57-.9,1.14-1.41,1.68L402.83,392h-.74V377.18h2V386c0,.67,0,1.34-.07,2,.53-.67,1.11-1.31,1.68-1.94l8-8.81Z" transform="translate(-204.86 -343.39)"/><path class="cls-1" d="M418.69,384.58a7.67,7.67,0,1,1,7.64,7.77A7.41,7.41,0,0,1,418.69,384.58Zm13.27,0a5.5,5.5,0,0,0-5.63-5.86c-3.29,0-5.56,2.44-5.56,5.86s2.28,5.86,5.56,5.86A5.5,5.5,0,0,0,432,384.58Z" transform="translate(-204.86 -343.39)"/><path class="cls-1" d="M450.53,377.18V392h-2v-6.53h-8.24V392h-2V377.18h2v6.4h8.24v-6.4Z" transform="translate(-204.86 -343.39)"/><path class="cls-1" d="M466.79,382.13V392h-1.51l-.37-2.68a6.24,6.24,0,0,1-5.6,2.95c-2.88,0-4.73-1.57-4.73-4.12,0-3.32,3.05-5.23,7.41-5.23a20.81,20.81,0,0,1,2.71.13v-1c0-2.08-1.47-3.12-3.75-3.12a11.61,11.61,0,0,0-4.89,1.24l-.7-1.74a13.59,13.59,0,0,1,5.8-1.41C464.55,377,466.79,378.78,466.79,382.13Zm-2.08,2.61a17.66,17.66,0,0,0-2.41-.13c-3.48,0-5.56,1.21-5.56,3.39,0,1.47,1.07,2.34,2.92,2.34C462.7,390.34,464.61,388.13,464.71,384.75Z" transform="translate(-204.86 -343.39)"/><path class="cls-1" d="M469.48,390.34c2.78-.3,3.65-2.08,3.92-5.36l.64-7.81h9.58V392h-2v-12.9h-5.7l-.47,5.73c-.37,4.89-1.84,6.87-5.7,7.37Z" transform="translate(-204.86 -343.39)"/><path class="cls-1" d="M500.49,387.23c0,3-2.11,4.76-5.46,4.76h-6.17V377.18h2v5.29H495C498.38,382.47,500.49,384.21,500.49,387.23Zm-2,0c0-1.88-1.21-2.88-3.42-2.88H490.9v5.76H495C497.24,390.11,498.44,389.1,498.44,387.23Z" transform="translate(-204.86 -343.39)"/><path class="cls-1" d="M516.54,377.18V392h-2v-6.53h-8.24V392h-2V377.18h2v6.4h8.24v-6.4Z" transform="translate(-204.86 -343.39)"/><path class="cls-1" d="M533.41,387.23c0,3-2.11,4.76-5.46,4.76h-6.17V377.18h2v5.29h4.12C531.3,382.47,533.41,384.21,533.41,387.23Zm-2,0c0-1.88-1.21-2.88-3.42-2.88h-4.12v5.76h4.12C530.16,390.11,531.36,389.1,531.36,387.23Zm7-10.05V392h-2V377.18Z" transform="translate(-204.86 -343.39)"/><path class="cls-1" d="M556,377.18V392h-2v-9c0-.57,0-1.14,0-1.71-.43.57-.9,1.14-1.41,1.68L544.31,392h-.74V377.18h2V386c0,.67,0,1.34-.07,2,.53-.67,1.11-1.31,1.68-1.94l8-8.81Zm-10.35-5.53,1.24-.94a3.6,3.6,0,0,0,3,1.71,3.69,3.69,0,0,0,3-1.71l1.21.94a4.55,4.55,0,0,1-4.22,2.41A4.64,4.64,0,0,1,545.65,371.65Z" transform="translate(-204.86 -343.39)"/><path class="cls-1" d="M364.53,425.35v.17H362l-7-6.87v6.87h-2V410.7h2v6.5l6.4-6.5h2.48v.1l-7,7.07Z" transform="translate(-204.86 -343.39)"/><path class="cls-1" d="M382.57,418c0,4.56-3.08,7.81-7.34,7.81a7.07,7.07,0,0,1-5.76-2.78c0,1.14.07,2.52.07,4v5.83h-2V410.7H369l.44,2.48a7,7,0,0,1,5.8-2.78C379.49,410.4,382.57,413.62,382.57,418Zm-2,.1c0-3.42-2.25-5.83-5.43-5.83a5.46,5.46,0,0,0-5.66,5.73,5.54,5.54,0,0,0,5.66,5.9C378.28,423.94,380.53,421.53,380.53,418.14Z" transform="translate(-204.86 -343.39)"/><path class="cls-1" d="M399.74,417.51a10.58,10.58,0,0,1-.1,1.44H387.77a5.42,5.42,0,0,0,5.53,5,5.75,5.75,0,0,0,4.52-1.81l1.17,1.47a7.81,7.81,0,0,1-5.66,2.25,7.78,7.78,0,0,1-.17-15.55C397.29,410.33,399.74,413.18,399.74,417.51Zm-11.9-.37h9.89c-.07-3.15-1.88-4.89-4.59-4.89A5.31,5.31,0,0,0,387.84,417.14Z" transform="translate(-204.86 -343.39)"/><path class="cls-1" d="M417.3,423.64v5.8h-2v-3.92h-12v3.92h-2v-5.8h1.94a10.4,10.4,0,0,0,1.41-5l.77-7.94h9.75v12.93ZM406.65,419a12,12,0,0,1-1.14,4.66h7.64v-11h-5.86Z" transform="translate(-204.86 -343.39)"/><path class="cls-1" d="M433.06,410.7v14.81h-2v-9c0-.57,0-1.14,0-1.71-.43.57-.9,1.14-1.41,1.68l-8.28,9.08h-.74V410.7h2v8.78c0,.67,0,1.34-.07,2,.53-.67,1.11-1.31,1.68-1.94l8-8.81Z" transform="translate(-204.86 -343.39)"/><path class="cls-1" d="M441.08,412.58h-4.72V410.7h11.53v1.87h-4.76v12.94h-2Z" transform="translate(-204.86 -343.39)"/><path class="cls-1" d="M463.5,410.7v14.81h-2V419h-8.24v6.53h-2V410.7h2v6.4h8.24v-6.4Z" transform="translate(-204.86 -343.39)"/><path class="cls-1" d="M480.37,420.75c0,3-2.11,4.76-5.46,4.76h-6.17V410.7h2V416h4.12C478.26,416,480.37,417.74,480.37,420.75Zm-2,0c0-1.88-1.21-2.88-3.42-2.88h-4.12v5.76h4.12C477.12,423.64,478.32,422.63,478.32,420.75Zm7-10.05v14.81h-2V410.7Z" transform="translate(-204.86 -343.39)"/><path class="cls-1" d="M503,410.7v14.81h-2v-9c0-.57,0-1.14,0-1.71-.43.57-.9,1.14-1.41,1.68l-8.28,9.08h-.74V410.7h2v8.78c0,.67,0,1.34-.07,2,.53-.67,1.11-1.31,1.68-1.94l8-8.81Zm-10.35-5.53,1.24-.94a3.6,3.6,0,0,0,3,1.71,3.69,3.69,0,0,0,3-1.71l1.21.94a4.55,4.55,0,0,1-4.22,2.41A4.64,4.64,0,0,1,492.61,405.17Z" transform="translate(-204.86 -343.39)"/><path class="cls-1" d="M530.22,423.64v5.8h-2v-3.92h-12.4V410.7h2v12.93H526V410.7h2v12.93Z" transform="translate(-204.86 -343.39)"/><path class="cls-1" d="M546.52,417.51a11,11,0,0,1-.1,1.44H534.56a5.42,5.42,0,0,0,5.53,5,5.75,5.75,0,0,0,4.52-1.81l1.17,1.47a7.81,7.81,0,0,1-5.66,2.25,7.78,7.78,0,0,1-.17-15.55C544.07,410.33,546.52,413.18,546.52,417.51Zm-11.9-.37h9.89c-.07-3.15-1.88-4.89-4.59-4.89A5.31,5.31,0,0,0,534.62,417.14Z" transform="translate(-204.86 -343.39)"/><path class="cls-1" d="M562.81,410.7v14.81h-2V419h-8.24v6.53h-2V410.7h2v6.4h8.24v-6.4Z" transform="translate(-204.86 -343.39)"/><path class="cls-1" d="M570.83,412.58h-4.72V410.7h11.53v1.87h-4.76v12.94h-2Z" transform="translate(-204.86 -343.39)"/><path class="cls-1" d="M596,418c0,4.56-3.08,7.81-7.34,7.81a7.07,7.07,0,0,1-5.76-2.78c0,1.14.07,2.52.07,4v5.83h-2V410.7h1.54l.44,2.48a7,7,0,0,1,5.8-2.78C592.92,410.4,596,413.62,596,418Zm-2,.1c0-3.42-2.25-5.83-5.43-5.83a5.46,5.46,0,0,0-5.66,5.73,5.54,5.54,0,0,0,5.66,5.9C591.71,423.94,594,421.53,594,418.14Z" transform="translate(-204.86 -343.39)"/><path class="cls-2" d="M314.29,376.27c-17,0-28.67,4.35-29.06,4.53a2.14,2.14,0,0,0-1,2.91c-3.27-1.24-7.83-3-12.4-5.09-7.79-3.48-12.83-2.41-18.4,2H236.1c.09-.69.17-1.35.22-2a2.15,2.15,0,0,0-.67-1.76c-3.71-3.51-24.46-4.91-24.46-4.91a56,56,0,0,0-6.22,21.7,62.13,62.13,0,0,0,2.42,21.55h18.12a2.16,2.16,0,0,0,2.05-1.49l.51-1.58,1.6,1.66c1.93,2,3.92,4.1,5.26,5.23,8.05,6.74,17.73,14,19.66,15.29a16.59,16.59,0,0,0,7.68,2.52,7.44,7.44,0,0,0,4.91-1.44,6.73,6.73,0,0,0,4.92-.05,8.52,8.52,0,0,0,4.5-4.16,8.36,8.36,0,0,0,5.43-.78,7.34,7.34,0,0,0,3.61-3.77,7.07,7.07,0,0,0,5-1.78,6.81,6.81,0,0,0,2.33-6.55l3.44-2.31c.24.77.44,1.44.58,2a2.16,2.16,0,0,0,2.08,1.59h15.6c1.19,0,4.82-15.86,4.18-24.1S315.48,376.27,314.29,376.27Zm-90.35,34.6h-13s-1.88-5-1.43-16.4a47.19,47.19,0,0,1,4.73-18c7,.55,15,1.71,17.68,3C230.73,389,225.55,405.79,223.94,410.87Zm63.86,10.67a2.41,2.41,0,0,1-2.62.54c-1.67-1.35-8.46-8.31-12.68-12.71a2.16,2.16,0,1,0-3.12,3c1,1,9.08,9.47,12.32,12.42a3,3,0,0,1-1.59,1.73,3.32,3.32,0,0,1-3.37.08l-.07-.05,0-.06c-2.59-2.07-9.1-9-10.57-10.59a2.16,2.16,0,1,0-3.19,2.93c.07.07,6.41,6.92,10,10.13a4.17,4.17,0,0,1-2.3,2.33,2.28,2.28,0,0,1-2.48-.38l0,0,0,0c-3.08-2.6-9.39-9.32-10.63-10.64a2.16,2.16,0,1,0-3.16,3c1.46,1.57,5.82,6.19,9.1,9.27a7.49,7.49,0,0,1-1,.06,12.45,12.45,0,0,1-5.3-1.81c-1.52-1-11-8.1-19.26-15-1.15-1-3.15-3.06-4.92-4.9-1.3-1.36-2.49-2.59-3.28-3.33,1.81-6,4.42-15.1,5.86-22.55h13.27c-3,3-6.93,8.92-5.9,13.3a5.35,5.35,0,0,0,3.72,3.9c4.9,1.62,9.37.07,12.7-4.35a10.92,10.92,0,0,0,3.25-1c.41-.18.88-.39,1.51-.65,2.47,2.32,5.81,5,9.33,7.87,6.36,5.14,13.57,11,15.19,14.35A2.53,2.53,0,0,1,287.8,421.54Zm3.24-7.19c-3-4-9.1-8.95-15.06-13.77-3.93-3.17-7.64-6.18-10-8.54a2.16,2.16,0,0,0-2.26-.51c-1.46.53-2.36.93-3.07,1.25a7.15,7.15,0,0,1-2.9.8,2.16,2.16,0,0,0-1.58.95c-3.06,4.57-6.22,4.18-8.34,3.47-.67-.22-.8-.51-.86-.79-.45-1.9,1.83-6.32,4.78-9.27,7-7,10.65-8.79,18.31-5.37,7.27,3.25,14.52,5.9,16.76,6.7,2.54,6.17,6,15.76,8.19,22.43Zm20.41.84H300.66c-2.05-6.68-8.11-24.09-11.48-31.29a83.48,83.48,0,0,1,22.09-3.29s3,6.37,3,17.55S311.45,415.19,311.45,415.19Z" transform="translate(-204.86 -343.39)"/><path class="cls-2" d="M227.89,357.5H233a.7.7,0,0,0,.4-.13,52.94,52.94,0,0,1,60.69,0,.7.7,0,0,0,.4.13h5.06a.7.7,0,0,0,.44-1.24,57.45,57.45,0,0,0-72.49,0,.7.7,0,0,0,.44,1.24Z" transform="translate(-204.86 -343.39)"/><path class="cls-2" d="M299.5,444.58h-5.06a.7.7,0,0,0-.4.13,52.94,52.94,0,0,1-60.69,0,.7.7,0,0,0-.4-.13h-5.06a.7.7,0,0,0-.44,1.24,57.45,57.45,0,0,0,72.49,0,.7.7,0,0,0-.44-1.24Z" transform="translate(-204.86 -343.39)"/></svg>